# xmcd
# Track frame offsets:
# 150
# 19252
# 39086
# 53670
# 70119
# 87978
# 103769
# 123423
# 143343
# 163663
#
# Disc length: 2422 seconds
# Revision: 0
# Processed by: cddbd v1.5.1PL0 Copyright (c) Steve Scherf et al.
# Submitted via: VisiTrax 2.9.10.228 - For more info visit www.synapsa.com
#
DISCID=7809740a
DTITLE=The Eagles - On the Border
DYEAR=1900
DGENRE=Country Rock
TTITLE0=Already Gone
TTITLE1=You Never Cry Like a Lover
TTITLE2=Midnight Flyer
TTITLE3=My Man
TTITLE4=On the Border
TTITLE5=James Dean
TTITLE6=Ol' 55
TTITLE7=Is It True
TTITLE8=Good Day in Hell
TTITLE9=The Best of My Love
EXTD=
EXTT0=
EXTT1=
EXTT2=
EXTT3=
EXTT4=
EXTT5=
EXTT6=
EXTT7=
EXTT8=
EXTT9=
PLAYORDER=
